# xmcd
#
# Track frame offsets: 
#        150
#        16412
#        32397
#        50905
#
# Disc length: 932 seconds
#
# Revision: 1
# Processed by: cddbd v1.5.2PL0 Copyright (c) Steve Scherf et al.
# Submitted via: ExactAudioCopy v0.99pb5
#
DISCID=2a03a204
DTITLE=Fine Young Cannibals - She Drives Me Crazy
DYEAR=1997
DGENRE=Pop
TTITLE0=She Drives Me Crazy (Original 7'' Edit)
TTITLE1=She Drives Me Crazy (Roger Sanchez Radio Edit)
TTITLE2=Johnny Come Home (Mousse T Edit)
TTITLE3=Johnny Come Home (Mousse T Cocktail Mix)
EXTD=
EXTT0=
EXTT1=
EXTT2=
EXTT3=
PLAYORDER=
